<svg width="116" height="24" viewBox="0 0 116 24" fill="none" xmlns="http://www.w3.org/2000/svg">
<path d="M38.528 5.544H41.008L45.312 17H42.928L41.968 14.264H37.584L36.624 17H34.24L38.528 5.544ZM41.264 12.28L40.256 9.4L39.84 8.024H39.712L39.296 9.4L38.272 12.28H41.264ZM47.7549 7.944C47.3815 7.944 47.0615 7.81067 46.7949 7.544C46.5282 7.27733 46.3949 6.95733 46.3949 6.584C46.3949 6.21067 46.5282 5.896 46.7949 5.64C47.0615 5.37333 47.3815 5.24 47.7549 5.24C48.1282 5.24 48.4429 5.37333 48.6989 5.64C48.9655 5.896 49.0989 6.21067 49.0989 6.584C49.0989 6.95733 48.9655 7.27733 48.6989 7.544C48.4429 7.81067 48.1282 7.944 47.7549 7.944ZM46.6989 8.84H48.7949V17H46.6989V8.84ZM50.9928 8.84H52.9608V9.928H53.0888C53.2914 9.544 53.6061 9.22933 54.0328 8.984C54.4594 8.728 54.9288 8.6 55.4408 8.6C55.8141 8.6 56.1554 8.65867 56.4648 8.776V10.872C56.1768 10.7653 55.9314 10.6907 55.7288 10.648C55.5368 10.5947 55.3288 10.568 55.1048 10.568C54.4861 10.568 53.9954 10.792 53.6328 11.24C53.2701 11.688 53.0888 12.2533 53.0888 12.936V17H50.9928V8.84ZM59.0049 7.944C58.6315 7.944 58.3115 7.81067 58.0449 7.544C57.7782 7.27733 57.6449 6.95733 57.6449 6.584C57.6449 6.21067 57.7782 5.896 58.0449 5.64C58.3115 5.37333 58.6315 5.24 59.0049 5.24C59.3782 5.24 59.6929 5.37333 59.9489 5.64C60.2155 5.896 60.3489 6.21067 60.3489 6.584C60.3489 6.95733 60.2155 7.27733 59.9489 7.544C59.6929 7.81067 59.3782 7.944 59.0049 7.944ZM57.9489 8.84H60.0449V17H57.9489V8.84ZM66.2808 5.544H68.4408V10.12H73.2568V5.544H75.4168V17H73.2568V12.168H68.4408V17H66.2808V5.544ZM81.5824 17.256C80.7717 17.256 80.041 17.0693 79.3904 16.696C78.7397 16.3227 78.2277 15.8107 77.8544 15.16C77.4917 14.4987 77.3104 13.7573 77.3104 12.936C77.3104 12.1573 77.4917 11.4373 77.8544 10.776C78.217 10.104 78.7184 9.57067 79.3584 9.176C79.9984 8.78133 80.713 8.584 81.5024 8.584C82.345 8.584 83.0704 8.76533 83.6784 9.128C84.2864 9.49067 84.745 9.98667 85.0544 10.616C85.3744 11.2453 85.5344 11.944 85.5344 12.712C85.5344 12.9573 85.5184 13.192 85.4864 13.416H79.3584C79.465 14.0667 79.721 14.5627 80.1264 14.904C80.5424 15.2347 81.0384 15.4 81.6144 15.4C82.0944 15.4 82.505 15.2987 82.8464 15.096C83.1984 14.8827 83.4757 14.6 83.6784 14.248L85.3744 15.08C84.5424 16.5307 83.2784 17.256 81.5824 17.256ZM83.5184 11.928C83.497 11.672 83.401 11.4213 83.2304 11.176C83.0704 10.92 82.841 10.712 82.5424 10.552C82.2544 10.3813 81.913 10.296 81.5184 10.296C81.017 10.296 80.585 10.4453 80.2224 10.744C79.8704 11.032 79.6144 11.4267 79.4544 11.928H83.5184ZM89.7231 17.256C88.8591 17.256 88.1498 17.0053 87.5951 16.504C87.0405 15.992 86.7631 15.3253 86.7631 14.504C86.7631 13.96 86.9071 13.48 87.1951 13.064C87.4831 12.648 87.8778 12.328 88.3791 12.104C88.8805 11.88 89.4351 11.768 90.0431 11.768C90.8858 11.768 91.6058 11.8907 92.2031 12.136V11.784C92.2031 11.336 92.0325 10.9733 91.6911 10.696C91.3605 10.4187 90.9125 10.28 90.3471 10.28C89.9631 10.28 89.5898 10.3707 89.2271 10.552C88.8751 10.7227 88.5818 10.952 88.3471 11.24L87.0031 10.184C87.3978 9.672 87.8938 9.27733 88.4911 9C89.0885 8.72267 89.7391 8.584 90.4431 8.584C91.6911 8.584 92.6405 8.872 93.2911 9.448C93.9418 10.024 94.2671 10.8667 94.2671 11.976V17H92.2031V16.168H92.0751C91.8298 16.488 91.5045 16.7493 91.0991 16.952C90.7045 17.1547 90.2458 17.256 89.7231 17.256ZM90.2191 15.624C90.8271 15.624 91.3071 15.432 91.6591 15.048C92.0218 14.6533 92.2031 14.1947 92.2031 13.672C91.6591 13.416 91.0885 13.288 90.4911 13.288C89.4031 13.288 88.8591 13.6933 88.8591 14.504C88.8591 14.8347 88.9765 15.1067 89.2111 15.32C89.4458 15.5227 89.7818 15.624 90.2191 15.624ZM96.1959 5.544H98.2919V17H96.1959V5.544ZM103.982 17.128C103.577 17.128 103.204 17.0693 102.862 16.952C102.521 16.824 102.244 16.6533 102.03 16.44C101.529 15.96 101.278 15.2773 101.278 14.392V10.632H99.8543V8.84H101.278V6.536H103.374V8.84H105.374V10.632H103.374V14.008C103.374 14.424 103.465 14.7227 103.646 14.904C103.796 15.0747 104.052 15.16 104.414 15.16C104.617 15.16 104.782 15.1333 104.91 15.08C105.049 15.0267 105.225 14.936 105.438 14.808V16.856C104.98 17.0373 104.494 17.128 103.982 17.128ZM107.196 5.544H109.292V8.44L109.164 9.864H109.292C109.527 9.48 109.868 9.17067 110.316 8.936C110.764 8.70133 111.249 8.584 111.772 8.584C112.764 8.584 113.521 8.88267 114.044 9.48C114.577 10.0667 114.844 10.8827 114.844 11.928V17H112.748V12.184C112.748 11.6613 112.604 11.256 112.316 10.968C112.039 10.68 111.665 10.536 111.196 10.536C110.641 10.536 110.183 10.76 109.82 11.208C109.468 11.656 109.292 12.2053 109.292 12.856V17H107.196V5.544Z" fill="black"/>
<path fill-rule="evenodd" clip-rule="evenodd" d="M9 4.75C8.53827 4.75 8.13403 4.99996 7.91677 5.37554C7.70936 5.73409 7.25057 5.85661 6.89202 5.6492C6.53347 5.4418 6.41095 4.983 6.61836 4.62446C7.09272 3.80444 7.98117 3.25 9 3.25C10.5188 3.25 11.75 4.48122 11.75 6C11.75 7.51878 10.5188 8.75 9 8.75H4C3.58579 8.75 3.25 8.41421 3.25 8C3.25 7.58579 3.58579 7.25 4 7.25H9C9.69036 7.25 10.25 6.69036 10.25 6C10.25 5.30964 9.69036 4.75 9 4.75Z" fill="#215EE9"/>
<path fill-rule="evenodd" clip-rule="evenodd" d="M14 19.25C13.5383 19.25 13.134 19 12.9168 18.6245C12.7094 18.2659 12.2506 18.1434 11.892 18.3508C11.5335 18.5582 11.411 19.017 11.6184 19.3755C12.0927 20.1956 12.9812 20.75 14 20.75C15.5188 20.75 16.75 19.5188 16.75 18C16.75 16.4812 15.5188 15.25 14 15.25H4C3.58579 15.25 3.25 15.5858 3.25 16C3.25 16.4142 3.58579 16.75 4 16.75H14C14.6904 16.75 15.25 17.3096 15.25 18C15.25 18.6904 14.6904 19.25 14 19.25Z" fill="#215EE9"/>
<path fill-rule="evenodd" clip-rule="evenodd" d="M17 6.75C16.0215 6.75 15.1871 7.37503 14.8778 8.24993C14.7398 8.64047 14.3113 8.84517 13.9208 8.70713C13.5302 8.56909 13.3255 8.1406 13.4636 7.75007C13.978 6.29459 15.3661 5.25 17 5.25C19.0711 5.25 20.75 6.92893 20.75 9C20.75 11.0711 19.0711 12.75 17 12.75H4C3.58579 12.75 3.25 12.4142 3.25 12C3.25 11.5858 3.58579 11.25 4 11.25H17C18.2426 11.25 19.25 10.2426 19.25 9C19.25 7.75736 18.2426 6.75 17 6.75Z" fill="#215EE9"/>
</svg>
